<svg width="52" height="54" viewBox="0 0 52 54" fill="none" xmlns="http://www.w3.org/2000/svg" xmlns:xlink="http://www.w3.org/1999/xlink">
<path d="M47.085,51.913C47.865,52.695 49.131,52.696 49.913,51.915C50.695,51.135 50.696,49.869 49.915,49.087L47.085,51.913ZM38.7,37.852C37.92,37.07 36.654,37.069 35.872,37.85C35.09,38.63 35.089,39.896 35.87,40.678L38.7,37.852ZM1,24.25L-1,24.25L1,24.25ZM22.25,3L22.25,1L22.25,3ZM49.915,49.087L38.7,37.852L35.87,40.678L47.085,51.913L49.915,49.087ZM41.5,24.25C41.5,29.355 39.472,34.252 35.862,37.862L38.69,40.69C43.05,36.33 45.5,30.416 45.5,24.25L41.5,24.25ZM35.862,37.862C32.252,41.472 27.355,43.5 22.25,43.5L22.25,47.5C28.416,47.5 34.33,45.05 38.69,40.69L35.862,37.862ZM22.25,43.5C17.145,43.5 12.248,41.472 8.638,37.862L5.81,40.69C10.17,45.05 16.084,47.5 22.25,47.5L22.25,43.5ZM8.638,37.862C5.028,34.252 3,29.355 3,24.25L-1,24.25C-1,30.416 1.45,36.33 5.81,40.69L8.638,37.862ZM3,24.25C3,19.145 5.028,14.248 8.638,10.638L5.81,7.81C1.45,12.17 -1,18.084 -1,24.25L3,24.25ZM8.638,10.638C12.248,7.028 17.145,5 22.25,5L22.25,1C16.084,1 10.17,3.45 5.81,7.81L8.638,10.638ZM22.25,5C27.355,5 32.252,7.028 35.862,10.638L38.69,7.81C34.33,3.45 28.416,1 22.25,1L22.25,5ZM35.862,10.638C39.472,14.248 41.5,19.145 41.5,24.25L45.5,24.25C45.5,18.084 43.05,12.17 38.69,7.81L35.862,10.638Z" fill="#F28482"/>
</svg>
