<svg width="46" height="32" viewBox="0 0 46 32" fill="none" xmlns="http://www.w3.org/2000/svg" xmlns:xlink="http://www.w3.org/1999/xlink">
<path d="M44.018,10.903C44.117,8.041 43.49,5.199 42.198,2.643C41.32,1.595 40.103,0.887 38.758,0.643C33.193,0.138 27.605,-0.069 22.018,0.023C16.451,-0.073 10.883,0.128 5.338,0.623C4.241,0.823 3.227,1.337 2.418,2.103C0.618,3.763 0.418,6.603 0.218,9.003C-0.073,13.318 -0.073,17.648 0.218,21.963C0.275,23.314 0.477,24.655 0.818,25.963C1.059,26.973 1.547,27.908 2.238,28.683C3.052,29.49 4.09,30.034 5.218,30.243C9.529,30.776 13.874,30.996 18.218,30.903C25.218,31.003 31.358,30.903 38.618,30.343C39.773,30.147 40.84,29.602 41.678,28.783C42.238,28.223 42.656,27.538 42.898,26.783C43.613,24.589 43.964,22.292 43.938,19.983C44.018,18.863 44.018,12.103 44.018,10.903ZM17.498,21.183L17.498,8.803L29.338,15.023C26.018,16.863 21.638,18.943 17.498,21.183Z" fill="#F6BD60"/>
</svg>
