<svg width="40" height="34" viewBox="0 0 40 34" fill="none" xmlns="http://www.w3.org/2000/svg" xmlns:xlink="http://www.w3.org/1999/xlink">
<path d="M40,3.901C38.497,4.553 36.907,4.985 35.28,5.181C36.996,4.156 38.283,2.543 38.9,0.641C37.287,1.601 35.522,2.278 33.68,2.641C32.449,1.306 30.81,0.418 29.02,0.115C27.229,-0.188 25.389,0.112 23.788,0.968C22.186,1.823 20.914,3.186 20.17,4.843C19.427,6.499 19.255,8.356 19.68,10.121C16.419,9.956 13.229,9.107 10.317,7.629C7.406,6.151 4.838,4.077 2.78,1.541C2.058,2.802 1.679,4.229 1.68,5.681C1.677,7.03 2.008,8.358 2.644,9.548C3.279,10.738 4.198,11.753 5.32,12.501C4.016,12.466 2.74,12.116 1.6,11.481L1.6,11.581C1.61,13.471 2.272,15.299 3.475,16.757C4.677,18.215 6.347,19.212 8.2,19.581C7.487,19.798 6.746,19.913 6,19.921C5.484,19.915 4.969,19.868 4.46,19.781C4.988,21.407 6.009,22.827 7.382,23.846C8.755,24.864 10.411,25.428 12.12,25.461C9.234,27.732 5.672,28.971 2,28.981C1.331,28.983 0.663,28.943 0,28.861C3.749,31.282 8.118,32.567 12.58,32.561C15.659,32.593 18.714,32.011 21.566,30.849C24.418,29.687 27.01,27.969 29.19,25.794C31.371,23.619 33.096,21.032 34.265,18.183C35.434,15.334 36.024,12.281 36,9.201C36,8.861 36,8.501 36,8.141C37.569,6.971 38.923,5.536 40,3.901Z" fill="#F6BD60"/>
</svg>
